<?xml version="1.0" encoding="UTF-8" standalone="no"?>
<!DOCTYPE svg PUBLIC "-//W3C//DTD SVG 1.1//EN"
 "http://www.w3.org/Graphics/SVG/1.1/DTD/svg11.dtd">
<!-- Generated by graphviz version 14.1.3 (0)
 -->
<!-- Pages: 1 -->
<svg width="128pt" height="76pt"
 viewBox="0.00 0.00 128.00 76.00" xmlns="http://www.w3.org/2000/svg" xmlns:xlink="http://www.w3.org/1999/xlink">
<g id="graph0" class="graph" transform="scale(1 1) rotate(0) translate(4 71.97)">
<polygon fill="white" stroke="none" points="-4,4 -4,-71.97 124,-71.97 124,4 -4,4"/>
<!-- 0 -->
<g id="node1" class="node">
<title>0</title>
<ellipse fill="#f0f0f0" stroke="black" cx="18" cy="-38.07" rx="18" ry="18"/>
<text xml:space="preserve" text-anchor="middle" x="18" y="-35.3" font-family="monospace" font-size="12.00">0</text>
</g>
<!-- 1 -->
<g id="node2" class="node">
<title>1</title>
<ellipse fill="#f0f0f0" stroke="black" cx="102" cy="-38.07" rx="18" ry="18"/>
<text xml:space="preserve" text-anchor="middle" x="102" y="-35.3" font-family="monospace" font-size="12.00">1</text>
</g>
<!-- 0&#45;&gt;1 -->
<g id="edge1" class="edge">
<title>0&#45;&gt;1</title>
<path fill="none" stroke="black" d="M34.24,-46.19C40.23,-48.95 47.27,-51.69 54,-53.07 61.16,-54.54 68.76,-53.36 75.73,-51.14"/>
<polygon fill="black" stroke="black" points="76.6,-54.56 84.57,-47.59 73.99,-48.07 76.6,-54.56"/>
<text xml:space="preserve" text-anchor="middle" x="60" y="-58.47" font-family="monospace" font-size="10.00" fill="#666666">&gt;&gt;</text>
</g>
<!-- 0&#45;&gt;1 -->
<g id="edge3" class="edge">
<title>0&#45;&gt;1</title>
<path fill="none" stroke="black" d="M35.96,-35.95C44.89,-35.08 56.03,-34.36 66,-34.82 71.85,-35.09 78.24,-35.62 83.93,-36.17"/>
<text xml:space="preserve" text-anchor="middle" x="60" y="-39.57" font-family="monospace" font-size="10.00" fill="#666666">^</text>
</g>
<!-- 1&#45;&gt;0 -->
<g id="edge2" class="edge">
<title>1&#45;&gt;0</title>
<path fill="none" stroke="black" d="M91.86,-22.92C83.01,-10.37 68.8,4.46 54,-1.82 47.24,-4.69 41.14,-9.58 36.01,-14.86"/>
<polygon fill="black" stroke="black" points="33.65,-12.23 29.76,-22.08 38.95,-16.81 33.65,-12.23"/>
<text xml:space="preserve" text-anchor="middle" x="60" y="-6.57" font-family="monospace" font-size="10.00" fill="#666666">&lt;&lt;</text>
</g>
</g>
</svg>
