<?xml version="1.0" encoding="UTF-8" standalone="no"?>
<!DOCTYPE svg PUBLIC "-//W3C//DTD SVG 1.1//EN"
 "http://www.w3.org/Graphics/SVG/1.1/DTD/svg11.dtd">
<!-- Generated by graphviz version 14.1.3 (0)
 -->
<!-- Pages: 1 -->
<svg width="116pt" height="44pt"
 viewBox="0.00 0.00 116.00 44.00" xmlns="http://www.w3.org/2000/svg" xmlns:xlink="http://www.w3.org/1999/xlink">
<g id="graph0" class="graph" transform="scale(1 1) rotate(0) translate(4 40)">
<polygon fill="white" stroke="none" points="-4,4 -4,-40 112,-40 112,4 -4,4"/>
<!-- 0 -->
<g id="node1" class="node">
<title>0</title>
<ellipse fill="#f0f0f0" stroke="black" cx="18" cy="-18" rx="18" ry="18"/>
<text xml:space="preserve" text-anchor="middle" x="18" y="-15.22" font-family="monospace" font-size="12.00">0</text>
</g>
<!-- 1 -->
<g id="node2" class="node">
<title>1</title>
<ellipse fill="#f0f0f0" stroke="black" cx="90" cy="-18" rx="18" ry="18"/>
<text xml:space="preserve" text-anchor="middle" x="90" y="-15.22" font-family="monospace" font-size="12.00">1</text>
</g>
<!-- 0&#45;&gt;1 -->
<g id="edge1" class="edge">
<title>0&#45;&gt;1</title>
<path fill="none" stroke="black" d="M35.24,-12.2C43.01,-11.33 52.54,-11.06 61.4,-11.39"/>
<polygon fill="black" stroke="black" points="61.12,-14.87 71.34,-12.1 61.62,-7.89 61.12,-14.87"/>
</g>
<!-- 1&#45;&gt;0 -->
<g id="edge2" class="edge">
<title>1&#45;&gt;0</title>
<path fill="none" stroke="black" d="M72.85,-23.79C65.09,-24.67 55.57,-24.94 46.7,-24.62"/>
<polygon fill="black" stroke="black" points="46.97,-21.13 36.75,-23.91 46.47,-28.11 46.97,-21.13"/>
</g>
</g>
</svg>
