<?xml version="1.0" encoding="UTF-8" standalone="no"?>
<!DOCTYPE svg PUBLIC "-//W3C//DTD SVG 1.1//EN"
 "http://www.w3.org/Graphics/SVG/1.1/DTD/svg11.dtd">
<!-- Generated by graphviz version 14.1.3 (0)
 -->
<!-- Pages: 1 -->
<svg width="116pt" height="152pt"
 viewBox="0.00 0.00 116.00 152.00" xmlns="http://www.w3.org/2000/svg" xmlns:xlink="http://www.w3.org/1999/xlink">
<g id="graph0" class="graph" transform="scale(1 1) rotate(0) translate(4 148)">
<polygon fill="white" stroke="none" points="-4,4 -4,-148 112,-148 112,4 -4,4"/>
<!-- 0 -->
<g id="node1" class="node">
<title>0</title>
<ellipse fill="#f0f0f0" stroke="black" cx="18" cy="-72" rx="18" ry="18"/>
<text xml:space="preserve" text-anchor="middle" x="18" y="-69.22" font-family="monospace" font-size="12.00">0</text>
</g>
<!-- 1 -->
<g id="node2" class="node">
<title>1</title>
<ellipse fill="#f0f0f0" stroke="black" cx="90" cy="-126" rx="18" ry="18"/>
<text xml:space="preserve" text-anchor="middle" x="90" y="-123.22" font-family="monospace" font-size="12.00">1</text>
</g>
<!-- 0&#45;&gt;1 -->
<g id="edge1" class="edge">
<title>0&#45;&gt;1</title>
<path fill="none" stroke="black" d="M32.83,-82.67C42.32,-89.99 55.14,-99.88 66.14,-108.36"/>
<polygon fill="black" stroke="black" points="63.94,-111.09 74,-114.43 68.22,-105.55 63.94,-111.09"/>
</g>
<!-- 2 -->
<g id="node3" class="node">
<title>2</title>
<ellipse fill="#f0f0f0" stroke="black" cx="90" cy="-72" rx="18" ry="18"/>
<text xml:space="preserve" text-anchor="middle" x="90" y="-69.22" font-family="monospace" font-size="12.00">2</text>
</g>
<!-- 0&#45;&gt;2 -->
<g id="edge2" class="edge">
<title>0&#45;&gt;2</title>
<path fill="none" stroke="black" d="M36.3,-72C43.59,-72 52.27,-72 60.46,-72"/>
<polygon fill="black" stroke="black" points="60.38,-75.5 70.38,-72 60.38,-68.5 60.38,-75.5"/>
</g>
<!-- 3 -->
<g id="node4" class="node">
<title>3</title>
<ellipse fill="#f0f0f0" stroke="black" cx="90" cy="-18" rx="18" ry="18"/>
<text xml:space="preserve" text-anchor="middle" x="90" y="-15.22" font-family="monospace" font-size="12.00">3</text>
</g>
<!-- 0&#45;&gt;3 -->
<g id="edge3" class="edge">
<title>0&#45;&gt;3</title>
<path fill="none" stroke="black" d="M32.83,-61.33C42.32,-54.01 55.14,-44.12 66.14,-35.64"/>
<polygon fill="black" stroke="black" points="68.22,-38.45 74,-29.57 63.94,-32.91 68.22,-38.45"/>
</g>
</g>
</svg>
