<?xml version="1.0" encoding="UTF-8" standalone="no"?>
<!DOCTYPE svg PUBLIC "-//W3C//DTD SVG 1.1//EN"
 "http://www.w3.org/Graphics/SVG/1.1/DTD/svg11.dtd">
<!-- Generated by graphviz version 14.1.3 (0)
 -->
<!-- Pages: 1 -->
<svg width="188pt" height="44pt"
 viewBox="0.00 0.00 188.00 44.00" xmlns="http://www.w3.org/2000/svg" xmlns:xlink="http://www.w3.org/1999/xlink">
<g id="graph0" class="graph" transform="scale(1 1) rotate(0) translate(4 40)">
<polygon fill="white" stroke="none" points="-4,4 -4,-40 184,-40 184,4 -4,4"/>
<!-- 0 -->
<g id="node1" class="node">
<title>0</title>
<ellipse fill="#f0f0f0" stroke="black" cx="18" cy="-18" rx="18" ry="18"/>
<text xml:space="preserve" text-anchor="middle" x="18" y="-15.22" font-family="monospace" font-size="12.00">0</text>
</g>
<!-- 1 -->
<g id="node2" class="node">
<title>1</title>
<ellipse fill="#f0f0f0" stroke="black" cx="90" cy="-18" rx="18" ry="18"/>
<text xml:space="preserve" text-anchor="middle" x="90" y="-15.22" font-family="monospace" font-size="12.00">1</text>
</g>
<!-- 0&#45;&gt;1 -->
<g id="edge1" class="edge">
<title>0&#45;&gt;1</title>
<path fill="none" stroke="black" d="M36.3,-18C43.59,-18 52.27,-18 60.46,-18"/>
<polygon fill="black" stroke="black" points="60.38,-21.5 70.38,-18 60.38,-14.5 60.38,-21.5"/>
</g>
<!-- 2 -->
<g id="node3" class="node">
<title>2</title>
<ellipse fill="#f0f0f0" stroke="black" cx="162" cy="-18" rx="18" ry="18"/>
<text xml:space="preserve" text-anchor="middle" x="162" y="-15.22" font-family="monospace" font-size="12.00">2</text>
</g>
<!-- 1&#45;&gt;2 -->
<g id="edge2" class="edge">
<title>1&#45;&gt;2</title>
<path fill="none" stroke="black" d="M108.3,-18C115.59,-18 124.27,-18 132.46,-18"/>
<polygon fill="black" stroke="black" points="132.38,-21.5 142.38,-18 132.38,-14.5 132.38,-21.5"/>
</g>
</g>
</svg>
