<?xml version="1.0" encoding="UTF-8" standalone="no"?>
<!DOCTYPE svg PUBLIC "-//W3C//DTD SVG 1.1//EN"
 "http://www.w3.org/Graphics/SVG/1.1/DTD/svg11.dtd">
<!-- Generated by graphviz version 14.1.3 (0)
 -->
<!-- Pages: 1 -->
<svg width="201pt" height="87pt"
 viewBox="0.00 0.00 201.00 87.00" xmlns="http://www.w3.org/2000/svg" xmlns:xlink="http://www.w3.org/1999/xlink">
<g id="graph0" class="graph" transform="scale(1 1) rotate(0) translate(4 82.6)">
<polygon fill="white" stroke="none" points="-4,4 -4,-82.6 196.8,-82.6 196.8,4 -4,4"/>
<!-- 0 -->
<g id="node1" class="node">
<title>0</title>
<ellipse fill="#c8e6c9" stroke="#388e3c" stroke-width="2" cx="19.8" cy="-19.8" rx="19.8" ry="19.8"/>
<text xml:space="preserve" text-anchor="start" x="16.8" y="-20.3" font-family="monospace" font-size="10.00">0</text>
<text xml:space="preserve" text-anchor="start" x="17.55" y="-12.2" font-family="monospace" font-size="8.00">A</text>
</g>
<!-- 1 -->
<g id="node2" class="node">
<title>1</title>
<ellipse fill="#c8e6c9" stroke="#388e3c" stroke-width="2" cx="96.4" cy="-58.8" rx="19.8" ry="19.8"/>
<text xml:space="preserve" text-anchor="start" x="93.4" y="-59.3" font-family="monospace" font-size="10.00">1</text>
<text xml:space="preserve" text-anchor="start" x="94.15" y="-51.2" font-family="monospace" font-size="8.00">B</text>
</g>
<!-- 0&#45;&#45;1 -->
<g id="edge1" class="edge">
<title>0&#45;&#45;1</title>
<path fill="none" stroke="#388e3c" stroke-width="2" d="M38.1,-28.85C50.07,-35.1 65.93,-43.39 77.93,-49.67"/>
</g>
<!-- 2 -->
<g id="node3" class="node">
<title>2</title>
<ellipse fill="#c8e6c9" stroke="#388e3c" stroke-width="2" cx="173" cy="-19.8" rx="19.8" ry="19.8"/>
<text xml:space="preserve" text-anchor="start" x="170" y="-20.3" font-family="monospace" font-size="10.00">2</text>
<text xml:space="preserve" text-anchor="start" x="170.75" y="-12.2" font-family="monospace" font-size="8.00">C</text>
</g>
<!-- 0&#45;&#45;2 -->
<g id="edge3" class="edge">
<title>0&#45;&#45;2</title>
<path fill="none" stroke="#999999" stroke-dasharray="5,2" d="M40.42,-18.6C51.11,-18 64.58,-17.35 76.6,-17.05 94.19,-16.62 98.61,-16.62 116.2,-17.05 128.22,-17.35 141.69,-18 152.38,-18.6"/>
<text xml:space="preserve" text-anchor="middle" x="96.4" y="-21.25" font-family="monospace" font-size="9.00" fill="#999999">extra</text>
</g>
<!-- 1&#45;&#45;2 -->
<g id="edge2" class="edge">
<title>1&#45;&#45;2</title>
<path fill="none" stroke="#388e3c" stroke-width="2" d="M114.7,-49.75C126.67,-43.5 142.53,-35.21 154.53,-28.93"/>
</g>
</g>
</svg>
