<?xml version="1.0" encoding="UTF-8" standalone="no"?>
<!DOCTYPE svg PUBLIC "-//W3C//DTD SVG 1.1//EN"
 "http://www.w3.org/Graphics/SVG/1.1/DTD/svg11.dtd">
<!-- Generated by graphviz version 14.1.3 (0)
 -->
<!-- Pages: 1 -->
<svg width="206pt" height="116pt"
 viewBox="0.00 0.00 206.00 116.00" xmlns="http://www.w3.org/2000/svg" xmlns:xlink="http://www.w3.org/1999/xlink">
<g id="graph0" class="graph" transform="scale(1 1) rotate(0) translate(4 112)">
<polygon fill="white" stroke="none" points="-4,4 -4,-112 202,-112 202,4 -4,4"/>
<!-- 0 -->
<g id="node1" class="node">
<title>0</title>
<ellipse fill="#f0f0f0" stroke="black" cx="99" cy="-90" rx="18" ry="18"/>
<text xml:space="preserve" text-anchor="middle" x="99" y="-87.22" font-family="monospace" font-size="12.00">0</text>
</g>
<!-- 1 -->
<g id="node2" class="node">
<title>1</title>
<ellipse fill="#f0f0f0" stroke="black" cx="18" cy="-18" rx="18" ry="18"/>
<text xml:space="preserve" text-anchor="middle" x="18" y="-15.22" font-family="monospace" font-size="12.00">1</text>
</g>
<!-- 0&#45;&#45;1 -->
<g id="edge1" class="edge">
<title>0&#45;&#45;1</title>
<path fill="none" stroke="black" d="M85.62,-77.44C70.62,-64.47 46.41,-43.55 31.4,-30.58"/>
</g>
<!-- 2 -->
<g id="node3" class="node">
<title>2</title>
<ellipse fill="#f0f0f0" stroke="black" cx="72" cy="-18" rx="18" ry="18"/>
<text xml:space="preserve" text-anchor="middle" x="72" y="-15.22" font-family="monospace" font-size="12.00">2</text>
</g>
<!-- 0&#45;&#45;2 -->
<g id="edge2" class="edge">
<title>0&#45;&#45;2</title>
<path fill="none" stroke="black" d="M92.74,-72.76C88.38,-61.46 82.58,-46.44 78.23,-35.15"/>
</g>
<!-- 3 -->
<g id="node4" class="node">
<title>3</title>
<ellipse fill="#f0f0f0" stroke="black" cx="126" cy="-18" rx="18" ry="18"/>
<text xml:space="preserve" text-anchor="middle" x="126" y="-15.22" font-family="monospace" font-size="12.00">3</text>
</g>
<!-- 0&#45;&#45;3 -->
<g id="edge3" class="edge">
<title>0&#45;&#45;3</title>
<path fill="none" stroke="black" d="M105.26,-72.76C109.62,-61.46 115.42,-46.44 119.77,-35.15"/>
</g>
<!-- 4 -->
<g id="node5" class="node">
<title>4</title>
<ellipse fill="#f0f0f0" stroke="black" cx="180" cy="-18" rx="18" ry="18"/>
<text xml:space="preserve" text-anchor="middle" x="180" y="-15.22" font-family="monospace" font-size="12.00">4</text>
</g>
<!-- 0&#45;&#45;4 -->
<g id="edge4" class="edge">
<title>0&#45;&#45;4</title>
<path fill="none" stroke="black" d="M112.38,-77.44C127.38,-64.47 151.59,-43.55 166.6,-30.58"/>
</g>
</g>
</svg>
