<?xml version="1.0" encoding="UTF-8" standalone="no"?>
<!DOCTYPE svg PUBLIC "-//W3C//DTD SVG 1.1//EN"
 "http://www.w3.org/Graphics/SVG/1.1/DTD/svg11.dtd">
<!-- Generated by graphviz version 14.1.3 (0)
 -->
<!-- Pages: 1 -->
<svg width="188pt" height="67pt"
 viewBox="0.00 0.00 188.00 67.00" xmlns="http://www.w3.org/2000/svg" xmlns:xlink="http://www.w3.org/1999/xlink">
<g id="graph0" class="graph" transform="scale(1 1) rotate(0) translate(4 63)">
<polygon fill="white" stroke="none" points="-4,4 -4,-63 184,-63 184,4 -4,4"/>
<!-- 0 -->
<g id="node1" class="node">
<title>0</title>
<ellipse fill="#f0f0f0" stroke="black" cx="18" cy="-18" rx="18" ry="18"/>
<text xml:space="preserve" text-anchor="middle" x="18" y="-15.22" font-family="monospace" font-size="12.00">0</text>
</g>
<!-- 1 -->
<g id="node2" class="node">
<title>1</title>
<ellipse fill="#f0f0f0" stroke="black" cx="90" cy="-41" rx="18" ry="18"/>
<text xml:space="preserve" text-anchor="middle" x="90" y="-38.23" font-family="monospace" font-size="12.00">1</text>
</g>
<!-- 0&#45;&#45;1 -->
<g id="edge1" class="edge">
<title>0&#45;&#45;1</title>
<path fill="none" stroke="black" d="M35.59,-23.45C46.75,-27.12 61.4,-31.93 72.53,-35.59"/>
</g>
<!-- 2 -->
<g id="node3" class="node">
<title>2</title>
<ellipse fill="#f0f0f0" stroke="black" cx="162" cy="-18" rx="18" ry="18"/>
<text xml:space="preserve" text-anchor="middle" x="162" y="-15.22" font-family="monospace" font-size="12.00">2</text>
</g>
<!-- 1&#45;&#45;2 -->
<g id="edge2" class="edge">
<title>1&#45;&#45;2</title>
<path fill="none" stroke="black" d="M107.59,-35.55C118.75,-31.88 133.4,-27.07 144.53,-23.41"/>
</g>
<!-- 2&#45;&#45;0 -->
<g id="edge3" class="edge">
<title>2&#45;&#45;0</title>
<path fill="none" stroke="black" d="M143.83,-16.38C133.47,-15.48 119.99,-14.45 108,-14 92.01,-13.4 87.99,-13.4 72,-14 60.01,-14.45 46.53,-15.48 36.17,-16.38"/>
</g>
</g>
</svg>
